<svg id="Layer_2" data-name="Layer 2" xmlns="http://www.w3.org/2000/svg" width="183" height="183" viewBox="0 0 183 183">
  <circle id="Ellipse_4" data-name="Ellipse 4" cx="91.5" cy="91.5" r="91.5" fill="#e5e5e5"/>
  <text id="I" transform="matrix(0.969, -0.248, 0.248, 0.969, 71.62, 24.76)" fill="#1a1a1a" font-size="16" font-family="CormorantGaramond-Bold, Cormorant Garamond" font-weight="700"><tspan x="0" y="0">I</tspan></text>
  <text id="D" transform="matrix(0.993, -0.12, 0.12, 0.993, 76.79, 23.17)" fill="#1a1a1a" font-size="16" font-family="CormorantGaramond-Bold, Cormorant Garamond" font-weight="700"><tspan x="0" y="0">D</tspan></text>
  <text id="E" transform="matrix(0.999, 0.054, -0.054, 0.999, 89.94, 21.74)" fill="#1a1a1a" font-size="16" font-family="CormorantGaramond-Bold, Cormorant Garamond" font-weight="700"><tspan x="0" y="0">E</tspan></text>
  <text id="A" transform="translate(100.71 22.26) rotate(12.55)" fill="#1a1a1a" font-size="16" font-family="CormorantGaramond-Bold, Cormorant Garamond" font-weight="700"><tspan x="0" y="0">A</tspan></text>
  <text id="S" transform="matrix(0.928, 0.373, -0.373, 0.928, 112.7, 25.02)" fill="#1a1a1a" font-size="16" font-family="CormorantGaramond-Bold, Cormorant Garamond" font-weight="700"><tspan x="0" y="0">S</tspan></text>
  <text id="_" data-name="»" transform="matrix(0.79, 0.614, -0.614, 0.79, 130.58, 33.75)" fill="#1a1a1a" font-size="16" font-family="CormorantGaramond-Bold, Cormorant Garamond" font-weight="700"><tspan x="0" y="0">»</tspan></text>
  <text id="A-2" data-name="A" transform="translate(144.65 46.19) rotate(54.54)" fill="#1a1a1a" font-size="16" font-family="CormorantGaramond-Bold, Cormorant Garamond" font-weight="700"><tspan x="0" y="0">A</tspan></text>
  <text id="R" transform="matrix(0.431, 0.902, -0.902, 0.431, 151.76, 56.2)" fill="#1a1a1a" font-size="16" font-family="CormorantGaramond-Bold, Cormorant Garamond" font-weight="700"><tspan x="0" y="0">R</tspan></text>
  <text id="E-2" data-name="E" transform="translate(156.81 66.86) rotate(73.77)" fill="#1a1a1a" font-size="16" font-family="CormorantGaramond-Bold, Cormorant Garamond" font-weight="700"><tspan x="0" y="0">E</tspan></text>
  <text id="_2" data-name="»" transform="matrix(0.016, 1, -1, 0.016, 161, 86.79)" fill="#1a1a1a" font-size="16" font-family="CormorantGaramond-Bold, Cormorant Garamond" font-weight="700"><tspan x="0" y="0">»</tspan></text>
  <text id="S-2" data-name="S" transform="translate(159.84 105.59) rotate(105.81)" fill="#1a1a1a" font-size="16" font-family="CormorantGaramond-Bold, Cormorant Garamond" font-weight="700"><tspan x="0" y="0">S</tspan></text>
  <text id="H" transform="translate(157.15 115.49) rotate(115.42)" fill="#1a1a1a" font-size="16" font-family="CormorantGaramond-Bold, Cormorant Garamond" font-weight="700"><tspan x="0" y="0">H</tspan></text>
  <text id="_3" data-name="*" transform="translate(151.37 127.14) rotate(123.68)" fill="#1a1a1a" font-size="16" font-family="CormorantGaramond-Bold, Cormorant Garamond" font-weight="700"><tspan x="0" y="0">*</tspan></text>
  <text id="T" transform="matrix(-0.657, 0.754, -0.754, -0.657, 147.22, 133.46)" fill="#1a1a1a" font-size="16" font-family="CormorantGaramond-Bold, Cormorant Garamond" font-weight="700"><tspan x="0" y="0">T</tspan></text>
  <text id="_4" data-name="»" transform="matrix(-0.837, 0.547, -0.547, -0.837, 133.33, 147.29)" fill="#1a1a1a" font-size="16" font-family="CormorantGaramond-Bold, Cormorant Garamond" font-weight="700"><tspan x="0" y="0">»</tspan></text>
  <text id="W" transform="matrix(-0.97, 0.24, -0.24, -0.97, 117.22, 156.84)" fill="#1a1a1a" font-size="16" font-family="CormorantGaramond-Bold, Cormorant Garamond" font-weight="700"><tspan x="0" y="0">W</tspan></text>
  <text id="I-2" data-name="I" transform="translate(99.25 160.7) rotate(175.996)" fill="#1a1a1a" font-size="16" font-family="CormorantGaramond-Bold, Cormorant Garamond" font-weight="700"><tspan x="0" y="0">I</tspan></text>
  <text id="T-2" data-name="T" transform="translate(93.86 161.21) rotate(-177.91)" fill="#1a1a1a" font-size="16" font-family="CormorantGaramond-Bold, Cormorant Garamond" font-weight="700"><tspan x="0" y="0">T</tspan></text>
  <text id="H-2" data-name="H" transform="translate(83.92 160.97) rotate(-168.52)" fill="#1a1a1a" font-size="16" font-family="CormorantGaramond-Bold, Cormorant Garamond" font-weight="700"><tspan x="0" y="0">H</tspan></text>
  <text id="O" transform="translate(71.25 158.43) rotate(-157.6)" fill="#1a1a1a" font-size="16" font-family="CormorantGaramond-Bold, Cormorant Garamond" font-weight="700"><tspan x="0" y="0">O</tspan></text>
  <text id="U" transform="translate(58.8 153.25) rotate(-146.86)" fill="#1a1a1a" font-size="16" font-family="CormorantGaramond-Bold, Cormorant Garamond" font-weight="700"><tspan x="0" y="0">U</tspan></text>
  <text id="_5" data-name="»" transform="translate(41.14 139.72) rotate(-130.04)" fill="#1a1a1a" font-size="16" font-family="CormorantGaramond-Bold, Cormorant Garamond" font-weight="700"><tspan x="0" y="0">»</tspan></text>
  <text id="E-3" data-name="E" transform="matrix(-0.405, -0.914, 0.914, -0.405, 30.03, 124.56)" fill="#1a1a1a" font-size="16" font-family="CormorantGaramond-Bold, Cormorant Garamond" font-weight="700"><tspan x="0" y="0">E</tspan></text>
  <text id="X" transform="translate(25.68 114.8) rotate(-104.452)" fill="#1a1a1a" font-size="16" font-family="CormorantGaramond-Bold, Cormorant Garamond" font-weight="700"><tspan x="0" y="0">X</tspan></text>
  <text id="E-4" data-name="E" transform="matrix(-0.102, -0.995, 0.995, -0.102, 22.84, 104.01)" fill="#1a1a1a" font-size="16" font-family="CormorantGaramond-Bold, Cormorant Garamond" font-weight="700"><tspan x="0" y="0">E</tspan></text>
  <text id="C" transform="matrix(0.06, -0.998, 0.998, 0.06, 21.71, 93.33)" fill="#1a1a1a" font-size="16" font-family="CormorantGaramond-Bold, Cormorant Garamond" font-weight="700"><tspan x="0" y="0">C</tspan></text>
  <text id="U-2" data-name="U" transform="translate(22.33 81.66) rotate(-76.661)" fill="#1a1a1a" font-size="16" font-family="CormorantGaramond-Bold, Cormorant Garamond" font-weight="700"><tspan x="0" y="0">U</tspan></text>
  <text id="T-3" data-name="T" transform="translate(25.27 69.58) rotate(-67.557)" fill="#1a1a1a" font-size="16" font-family="CormorantGaramond-Bold, Cormorant Garamond" font-weight="700"><tspan x="0" y="0">T</tspan></text>
  <text id="I-3" data-name="I" transform="matrix(0.482, -0.876, 0.876, 0.482, 29.24, 60.31)" fill="#1a1a1a" font-size="16" font-family="CormorantGaramond-Bold, Cormorant Garamond" font-weight="700"><tspan x="0" y="0">I</tspan></text>
  <text id="O-2" data-name="O" transform="matrix(0.596, -0.803, 0.803, 0.596, 31.58, 55.48)" fill="#1a1a1a" font-size="16" font-family="CormorantGaramond-Bold, Cormorant Garamond" font-weight="700"><tspan x="0" y="0">O</tspan></text>
  <text id="N" transform="matrix(0.736, -0.677, 0.677, 0.736, 39.66, 44.66)" fill="#1a1a1a" font-size="16" font-family="CormorantGaramond-Bold, Cormorant Garamond" font-weight="700"><tspan x="0" y="0">N</tspan></text>
  <text id="_." data-name="." transform="translate(49.46 36.03) rotate(-35.605)" fill="#1a1a1a" font-size="16" font-family="CormorantGaramond-Bold, Cormorant Garamond" font-weight="700"><tspan x="0" y="0">.</tspan></text>
</svg>
