<svg xmlns="http://www.w3.org/2000/svg" viewBox="0 0 1862.7 527.53"><title>Layer 1</title><g id="Layer_2" data-name="Layer 2"><g id="Layer_1-2" data-name="Layer 1"><path d="M544,4.92c0,3.28-.53,4.92-1.57,4.92q-31.41,0-48.67,23.37T476.47,100V524q0,2.46-3.92,3.28c-2.63.54-4.45.27-5.5-.82L98.91,79.54V413.28q0,43.47,16.48,66.42t47.88,23c1,0,1.57,1.64,1.57,4.92s-.53,4.92-1.57,4.92q-21.2,0-32.18-.82l-41.6-.82-46.32.82q-12.56.82-36.11.82-2.35,0-2.35-4.92t2.35-4.92q33.75,0,52.2-23t18.45-66.42V54.12q-22-24.6-39.64-34.44A74,74,0,0,0,1.57,9.84Q0,9.84,0,4.92T1.57,0L33,.82q10.19.83,29,.82L112.25.82Q121.67,0,135,0q6.28,0,9.42,3.28t9.42,13.12q13.35,18.87,19.63,26.24l281.8,347.68V100q0-43.46-16.48-66.83T391.7,9.84c-1.06,0-1.57-1.64-1.57-4.92S390.64,0,391.7,0l32.18.82Q449,2.47,465.48,2.46q15.7,0,42.39-1.64L542.41,0C543.45,0,544,1.64,544,4.92Z"/><path d="M942.74,460.84c1.57,0,2.87,1.37,3.92,4.1s.79,4.65-.78,5.74L843.05,522.34l-3.14.82q-7.86,0-14.13-18.45t-7.07-49.61q-54.94,66.42-116.17,66.42-42.39,0-65.94-27.47t-23.55-75V296.84q0-55.75-24.33-55.76-7.86,0-22,6.56H566c-2.1,0-3.67-1.36-4.71-4.1s-.79-4.64.78-5.74l99.69-48.38,3.14-.82c2.09,0,4.44,1.1,7.07,3.28s3.92,4.1,3.92,5.74V383.76q0,91,65.94,91,19.61,0,40-9.84a127.62,127.62,0,0,0,36.89-27.06v-141q0-28.69-5.88-42.23t-18.45-13.53q-7.07,0-22,6.56h-.78q-3.15,0-4.71-4.51c-1.06-3-.53-4.78,1.57-5.33l98.9-48.38a8.51,8.51,0,0,1,3.93-.82c2.08,0,4.44,1.1,7.06,3.28s3.93,4.1,3.93,5.74V419.84q0,28.71,5.49,40.18t18.06,11.48q9.42,0,35.32-9.84Z"/><path d="M1345.42,507.58q0,4.92-2.36,4.92-19.62,0-30.61-.82l-45.53-.82-44.74.82q-11.78.82-31.4.82-2.35,0-2.35-4.92t2.35-4.92q26.67,0,35.32-11.48t8.64-45.1v-123q0-45.91-16.09-67.65T1168,233.7q-20.43,0-41.61,9.84A143,143,0,0,0,1088,269.78v176.3q0,33.63,8.64,45.1t35.32,11.48q2.35,0,2.35,4.92t-2.35,4.92q-19.64,0-30.61-.82l-45.53-.82-45.53.82q-11,.82-30.61.82-2.36,0-2.36-4.92t2.36-4.92q26.67,0,35.32-11.48t8.63-45.1V289.46q0-26.23-5.88-38.54t-19.24-12.3q-11.78,0-39.24,12.3h-.79c-2.1,0-3.67-1.36-4.71-4.1s-.78-4.37.79-4.92l102.83-52.48a31.89,31.89,0,0,1,5.49-1.64q7.85,0,16.09,18.45t9,48q54.93-68.05,119.32-68.06,43.15,0,67.5,27.47t24.34,74.21V446.08q0,33.63,8.63,45.1t35.32,11.48Q1345.42,502.66,1345.42,507.58Z"/><path d="M1459.24,499.79q-36.12-23.37-55.74-63.14t-19.62-86.51q0-53.29,25.51-90.61t65.15-55.76q39.63-18.45,81.25-18.45,47.87,0,83.6,23.78a155.29,155.29,0,0,1,54.55,62.73,188.68,188.68,0,0,1,18.84,83.23q0,49.2-23.16,87.74a158.62,158.62,0,0,1-62.4,59.45,177.61,177.61,0,0,1-84.78,20.91Q1495.34,523.16,1459.24,499.79Zm159.74-25q18.43-32,18.44-93.48,0-54.93-14.52-95.94T1583.65,223q-24.72-21.31-53.77-21.32-35.33,0-53.38,30.34t-18,89.38q0,53.31,13.74,95.53t38.46,66q24.74,23.79,55.34,23.78Q1600.52,506.76,1619,474.78Z"/><path d="M1788.91,509.22q-11.78-12.3-11.77-32.8,0-19.68,11.77-31.57t31.4-11.89q20.4,0,31.4,11.89t11,31.57q0,21.33-11,33.21t-31.4,11.89Q1800.69,521.52,1788.91,509.22Z"/></g></g></svg>