<svg id="Layer_2" data-name="Layer 2" xmlns="http://www.w3.org/2000/svg" width="183" height="183" viewBox="0 0 183 183">
  <g id="Layer_6" data-name="Layer 6">
    <g id="Circle01">
      <circle id="Ellipse_6" data-name="Ellipse 6" cx="91.5" cy="91.5" r="91.5" fill="#fffafa"/>
      <text id="F" transform="translate(71.51 24.65) rotate(-12.095)" fill="#1a1a1a" font-size="16" font-family="Montserrat-Bold, Montserrat" font-weight="700"><tspan x="0" y="0">F</tspan></text>
      <text id="A" transform="matrix(0.998, -0.06, 0.06, 0.998, 81.08, 22.43)" fill="#1a1a1a" font-size="16" font-family="Montserrat-Bold, Montserrat" font-weight="700"><tspan x="0" y="0">A</tspan></text>
      <text id="L" transform="translate(93.37 21.79) rotate(5.44)" fill="#1a1a1a" font-size="16" font-family="Montserrat-Bold, Montserrat" font-weight="700"><tspan x="0" y="0">L</tspan></text>
      <text id="L-2" data-name="L" transform="translate(103.09 22.72) rotate(13.339)" fill="#1a1a1a" font-size="16" font-family="Montserrat-Bold, Montserrat" font-weight="700"><tspan x="0" y="0">L</tspan></text>
      <text id="_" data-name="»" transform="translate(121.55 28.57) rotate(29.31)" fill="#1a1a1a" font-size="16" font-family="Montserrat-Bold, Montserrat" font-weight="700"><tspan x="0" y="0">»</tspan></text>
      <text id="I" transform="translate(137.25 39.02) rotate(43.386)" fill="#1a1a1a" font-size="16" font-family="Montserrat-Bold, Montserrat" font-weight="700"><tspan x="0" y="0">I</tspan></text>
      <text id="N" transform="matrix(0.633, 0.774, -0.774, 0.633, 141.35, 42.54)" fill="#1a1a1a" font-size="16" font-family="Montserrat-Bold, Montserrat" font-weight="700"><tspan x="0" y="0">N</tspan></text>
      <text id="_2" data-name="»" transform="translate(154.24 61.04) rotate(67.82)" fill="#1a1a1a" font-size="16" font-family="Montserrat-Bold, Montserrat" font-weight="700"><tspan x="0" y="0">»</tspan></text>
      <text id="L-3" data-name="L" transform="matrix(0.111, 0.994, -0.994, 0.111, 160.11, 78.9)" fill="#1a1a1a" font-size="16" font-family="Montserrat-Bold, Montserrat" font-weight="700"><tspan x="0" y="0">L</tspan></text>
      <text id="O" transform="translate(161.33 88.37) rotate(92.92)" fill="#1a1a1a" font-size="16" font-family="Montserrat-Bold, Montserrat" font-weight="700"><tspan x="0" y="0">O</tspan></text>
      <text id="V" transform="translate(160.62 101.51) rotate(103.09)" fill="#1a1a1a" font-size="16" font-family="Montserrat-Bold, Montserrat" font-weight="700"><tspan x="0" y="0">V</tspan></text>
      <text id="E" transform="translate(157.93 112.93) rotate(112.31)" fill="#1a1a1a" font-size="16" font-family="Montserrat-Bold, Montserrat" font-weight="700"><tspan x="0" y="0">E</tspan></text>
      <text id="_3" data-name="»" transform="matrix(-0.622, 0.783, -0.783, -0.622, 148.82, 131.21)" fill="#1a1a1a" font-size="16" font-family="Montserrat-Bold, Montserrat" font-weight="700"><tspan x="0" y="0">»</tspan></text>
      <text id="W" transform="translate(136.53 145.35) rotate(147.75)" fill="#1a1a1a" font-size="16" font-family="Montserrat-Bold, Montserrat" font-weight="700"><tspan x="0" y="0">W</tspan></text>
      <text id="I-2" data-name="I" transform="translate(120.71 154.72) rotate(157.34)" fill="#1a1a1a" font-size="16" font-family="Montserrat-Bold, Montserrat" font-weight="700"><tspan x="0" y="0">I</tspan></text>
      <text id="T" transform="translate(115.76 156.92) rotate(163.74)" fill="#1a1a1a" font-size="16" font-family="Montserrat-Bold, Montserrat" font-weight="700"><tspan x="0" y="0">T</tspan></text>
      <text id="H" transform="matrix(-0.993, 0.12, -0.12, -0.993, 106.24, 159.82)" fill="#1a1a1a" font-size="16" font-family="Montserrat-Bold, Montserrat" font-weight="700"><tspan x="0" y="0">H</tspan></text>
      <text id="_4" data-name="»" transform="matrix(-0.985, -0.175, 0.175, -0.985, 83.71, 160.8)" fill="#1a1a1a" font-size="16" font-family="Montserrat-Bold, Montserrat" font-weight="700"><tspan x="0" y="0">»</tspan></text>
      <text id="T-2" data-name="T" transform="matrix(-0.899, -0.439, 0.439, -0.899, 65.47, 156.23)" fill="#1a1a1a" font-size="16" font-family="Montserrat-Bold, Montserrat" font-weight="700"><tspan x="0" y="0">T</tspan></text>
      <text id="H-2" data-name="H" transform="translate(56.49 151.99) rotate(-144.395)" fill="#1a1a1a" font-size="16" font-family="Montserrat-Bold, Montserrat" font-weight="700"><tspan x="0" y="0">H</tspan></text>
      <text id="E-2" data-name="E" transform="translate(45.98 144.39) rotate(-134.87)" fill="#1a1a1a" font-size="16" font-family="Montserrat-Bold, Montserrat" font-weight="700"><tspan x="0" y="0">E</tspan></text>
      <text id="_5" data-name="»" transform="matrix(-0.481, -0.877, 0.877, -0.481, 32.66, 128.92)" fill="#1a1a1a" font-size="16" font-family="Montserrat-Bold, Montserrat" font-weight="700"><tspan x="0" y="0">»</tspan></text>
      <text id="P" transform="translate(24.71 111.91) rotate(-102.095)" fill="#1a1a1a" font-size="16" font-family="Montserrat-Bold, Montserrat" font-weight="700"><tspan x="0" y="0">P</tspan></text>
      <text id="R" transform="translate(22.27 100.59) rotate(-92.61)" fill="#1a1a1a" font-size="16" font-family="Montserrat-Bold, Montserrat" font-weight="700"><tspan x="0" y="0">R</tspan></text>
      <text id="O-2" data-name="O" transform="translate(21.65 88.82) rotate(-82.33)" fill="#1a1a1a" font-size="16" font-family="Montserrat-Bold, Montserrat" font-weight="700"><tspan x="0" y="0">O</tspan></text>
      <text id="C" transform="translate(23.53 75.45) rotate(-71.9)" fill="#1a1a1a" font-size="16" font-family="Montserrat-Bold, Montserrat" font-weight="700"><tspan x="0" y="0">C</tspan></text>
      <text id="E-3" data-name="E" transform="matrix(0.461, -0.888, 0.888, 0.461, 27.24, 64.27)" fill="#1a1a1a" font-size="16" font-family="Montserrat-Bold, Montserrat" font-weight="700"><tspan x="0" y="0">E</tspan></text>
      <text id="S" transform="translate(32.23 54.69) rotate(-53.92)" fill="#1a1a1a" font-size="16" font-family="Montserrat-Bold, Montserrat" font-weight="700"><tspan x="0" y="0">S</tspan></text>
      <text id="S-2" data-name="S" transform="matrix(0.701, -0.713, 0.713, 0.701, 38.31, 46.37)" fill="#1a1a1a" font-size="16" font-family="Montserrat-Bold, Montserrat" font-weight="700"><tspan x="0" y="0">S</tspan></text>
      <text id="_." data-name="." transform="matrix(0.775, -0.632, 0.632, 0.775, 45.95, 38.87)" fill="#1a1a1a" font-size="16" font-family="Montserrat-Bold, Montserrat" font-weight="700"><tspan x="0" y="0">.</tspan></text>
    </g>
  </g>
</svg>
